<svg width="49" height="44" viewBox="0 0 49 44" fill="none" xmlns="http://www.w3.org/2000/svg">
<path d="M44.9426 14.2C44.7426 13.8 44.2426 13.7 43.8426 13.9C41.6426 15.4 36.1426 17.1 36.1426 17.1C16.5426 22.1 24.8426 43.4 24.8426 43.4C34.3426 44.2 43.3426 42.2 47.0426 32.1C49.8426 24.1 46.2426 16.5 44.9426 14.2Z" fill="#179800"/>
<path d="M24.7426 43.4C24.7426 42.4 28.2426 29.1 40.3426 22.7C40.3426 22.7 29.1426 32.7 24.7426 43.4Z" fill="#88C057"/>
<path d="M8.04259 0.600018C8.44259 0.200018 9.04259 0.200018 9.44259 0.600018C11.8426 3.10002 18.2426 7.00002 18.2426 7.00002C41.4426 19.1 24.7426 43.5 24.7426 43.5C12.4426 41.8 1.74259 36.6 0.142588 22.7C-1.05741 11.7 5.64259 3.20002 8.04259 0.600018Z" fill="#88C057"/>
<path d="M24.8426 43.4C25.1426 42.1 24.6426 24.3 11.3426 12.7C11.2426 12.6 22.4426 28.6 24.8426 43.4Z" fill="#179800"/>
</svg>
