<svg width="24" height="16" viewBox="0 0 24 16" fill="none" xmlns="http://www.w3.org/2000/svg">
<path fill-rule="evenodd" clip-rule="evenodd" d="M0.75 1.4375C0.75 0.919733 1.16973 0.5 1.6875 0.5H22.3125C22.8303 0.5 23.25 0.919733 23.25 1.4375C23.25 1.95527 22.8303 2.375 22.3125 2.375H1.6875C1.16973 2.375 0.75 1.95527 0.75 1.4375ZM0.75 8C0.75 7.48223 1.16973 7.0625 1.6875 7.0625H22.3125C22.8303 7.0625 23.25 7.48223 23.25 8C23.25 8.51777 22.8303 8.9375 22.3125 8.9375H1.6875C1.16973 8.9375 0.75 8.51777 0.75 8ZM0.75 14.5625C0.75 14.0447 1.16973 13.625 1.6875 13.625H22.3125C22.8303 13.625 23.25 14.0447 23.25 14.5625C23.25 15.0803 22.8303 15.5 22.3125 15.5H1.6875C1.16973 15.5 0.75 15.0803 0.75 14.5625Z" fill="#179800"/>
</svg>
